<svg width="15" height="15" viewBox="0 0 15 15" fill="none" xmlns="http://www.w3.org/2000/svg">
<g clip-path="url(#clip0_9_1352)">
<path d="M14.6875 2.08604H3.16083V1.89937C3.09861 1.46382 2.90417 1.09826 2.5775 0.802709C2.25083 0.507153 1.85417 0.359375 1.3875 0.359375H0.6875V1.52604H1.3875C1.54306 1.52604 1.67528 1.57271 1.78417 1.66604C1.89306 1.75937 1.96306 1.88382 1.99417 2.03938L2.9275 9.87937C2.95861 10.346 3.1375 10.7194 3.46417 10.9994C3.79083 11.2794 4.1875 11.4349 4.65417 11.466H12.3542V10.2527H4.65417C4.49861 10.2527 4.36639 10.206 4.2575 10.1127C4.14861 10.0194 4.07861 9.89493 4.0475 9.73938L4.00083 9.08604H13.4275L14.6875 2.08604ZM12.4475 7.91937H3.86083L3.30083 3.25271H13.2875L12.4475 7.91937ZM3.6275 13.1927C3.59639 13.5038 3.6975 13.776 3.93083 14.0094C4.16417 14.2427 4.44417 14.3594 4.77083 14.3594C5.0975 14.3594 5.36972 14.2427 5.5875 14.0094C5.80528 13.776 5.92194 13.5038 5.9375 13.1927C5.95306 12.8816 5.84417 12.6094 5.61083 12.376C5.3775 12.1427 5.0975 12.026 4.77083 12.026C4.44417 12.026 4.17194 12.1427 3.95417 12.376C3.73639 12.6094 3.6275 12.8816 3.6275 13.1927ZM9.46083 13.1927C9.42972 13.5038 9.53083 13.776 9.76417 14.0094C9.9975 14.2427 10.2775 14.3594 10.6042 14.3594C10.9308 14.3594 11.2031 14.2427 11.4208 14.0094C11.6386 13.776 11.7553 13.5038 11.7708 13.1927C11.7864 12.8816 11.6775 12.6094 11.4442 12.376C11.2108 12.1427 10.9308 12.026 10.6042 12.026C10.2775 12.026 10.0053 12.1427 9.7875 12.376C9.56972 12.6094 9.46083 12.8816 9.46083 13.1927Z" fill="white"/>
</g>
<defs>
<clipPath id="clip0_9_1352">
<rect width="14" height="14" fill="white" transform="matrix(1 0 0 -1 0.6875 14.3594)"/>
</clipPath>
</defs>
</svg>
