<svg width="14" height="36" viewBox="0 0 14 36" fill="none" xmlns="http://www.w3.org/2000/svg">
<g clip-path="url(#clip0_9_1150)">
<path d="M5.88 25L5.46 24.6733C4.43333 23.8022 3.45333 22.8222 2.52 21.7333C0.84 19.7733 0 18.14 0 16.8333C0 15.7756 0.264444 14.7956 0.793333 13.8933C1.32222 12.9911 2.03778 12.2756 2.94 11.7467C3.84222 11.2178 4.82222 10.9533 5.88 10.9533C6.93778 10.9533 7.91778 11.2178 8.82 11.7467C9.72222 12.2756 10.4378 12.9911 10.9667 13.8933C11.4956 14.7956 11.76 15.7756 11.76 16.8333C11.76 18.14 10.92 19.7733 9.24 21.7333C8.33778 22.7911 7.35778 23.7711 6.3 24.6733L5.88 25ZM5.88 12.2133C5.04 12.2133 4.27 12.4233 3.57 12.8433C2.87 13.2633 2.31 13.8233 1.89 14.5233C1.47 15.2233 1.26 16.0011 1.26 16.8567C1.26 17.7122 1.83556 18.8556 2.98667 20.2867C3.79556 21.3133 4.76 22.3244 5.88 23.32C7 22.3244 7.96444 21.3133 8.77333 20.2867C9.92444 18.8556 10.5 17.7122 10.5 16.8567C10.5 16.0011 10.29 15.2233 9.87 14.5233C9.45 13.8233 8.89 13.2633 8.19 12.8433C7.49 12.4233 6.72 12.2133 5.88 12.2133ZM5.88 19.1667C5.22667 19.1667 4.67444 18.9411 4.22333 18.49C3.77222 18.0389 3.54667 17.4867 3.54667 16.8333C3.54667 16.18 3.77222 15.6278 4.22333 15.1767C4.67444 14.7256 5.22667 14.5 5.88 14.5C6.53333 14.5 7.08556 14.7256 7.53667 15.1767C7.98778 15.6278 8.21333 16.18 8.21333 16.8333C8.21333 17.4867 7.98778 18.0389 7.53667 18.49C7.08556 18.9411 6.53333 19.1667 5.88 19.1667ZM5.88 15.6667C5.56889 15.6667 5.29667 15.7833 5.06333 16.0167C4.83 16.25 4.71333 16.5222 4.71333 16.8333C4.71333 17.1444 4.83 17.4167 5.06333 17.65C5.29667 17.8833 5.56889 18 5.88 18C6.19111 18 6.46333 17.8833 6.69667 17.65C6.93 17.4167 7.04667 17.1444 7.04667 16.8333C7.04667 16.5222 6.93 16.25 6.69667 16.0167C6.46333 15.7833 6.19111 15.6667 5.88 15.6667Z" fill="#B6B6B6"/>
</g>
<defs>
<clipPath id="clip0_9_1150">
<rect width="14" height="35" fill="white" transform="matrix(1 0 0 -1 0 35.5)"/>
</clipPath>
</defs>
</svg>
