<svg width="116" height="87" viewBox="0 0 116 87" fill="none" xmlns="http://www.w3.org/2000/svg">
<g clip-path="url(#clip0_9_1282)">
<path d="M77 54H59C55.6863 54 53 56.6863 53 60V72C53 75.3137 55.6863 78 59 78H77C80.3137 78 83 75.3137 83 72V60C83 56.6863 80.3137 54 77 54Z" fill="#FDC040"/>
<path d="M24 7.5L25 10L28 9L34 8.5L43.5 8L53.5 8.5L70.5 10L72 8.5L73 6C73.1667 5.33333 73.5 3.9 73.5 3.5C73.5 3.1 72.1667 3 71.5 3L70 3.5L68.5 4H65.5C65 3.5 63.9 2.5 63.5 2.5C63.1 2.5 62.3333 1.83333 62 1.5H59.5L58 3L56 4H54L51.5 2.5L49 1L46.5 1.5L45 3L42.5 4L40 3.5C39.5 3.33333 38.4 3 38 3C37.6 3 37.1667 2 37 1.5H35.5L33.5 2C33.1667 2.33333 32.4 3 32 3C31.5 3 30.5 3.5 30.5 4C30.5 4.5 29 4 28.5 4C28 4 27.5 4 27 3.5C26.6 3.1 25.8333 3 25.5 3H23.5L23 5L24 7.5Z" fill="#FDC040"/>
<path d="M48.1363 51.3676C53.4382 51.3676 58.4354 49.8181 62.2082 47.0043C66.0837 44.1137 68.218 40.2383 68.218 36.092C68.218 31.9457 66.0837 28.0703 62.2082 25.1798C58.4354 22.366 53.4382 20.8164 48.1363 20.8164C42.8345 20.8164 37.8372 22.366 34.0645 25.1798C30.1891 28.0703 28.0547 31.9457 28.0547 36.092C28.0547 40.2383 30.189 44.1137 34.0645 47.0043C37.8372 49.8181 42.8345 51.3676 48.1363 51.3676ZM30.3985 36.092C30.3985 28.9614 38.3557 23.1602 48.1363 23.1602C57.917 23.1602 65.8742 28.9614 65.8742 36.092C65.8742 43.2226 57.917 49.0238 48.1363 49.0238C38.3557 49.0238 30.3985 43.2226 30.3985 36.092Z" fill="#0D6EFD"/>
<path d="M92.185 68.7062C93.161 67.9488 93.6921 67.0141 93.6921 65.9922C93.6921 64.9705 93.1611 64.0358 92.185 63.2784C93.0393 62.6861 93.6191 62.0009 93.9168 61.2293C94.1763 60.5567 94.3418 59.4732 93.656 58.1308C93.1214 57.085 92.2749 56.4064 91.2075 56.1681C89.4976 55.7866 87.2335 56.5566 84.4649 58.4568C83.1572 54.8953 79.8262 52.3456 75.8344 52.1648C74.997 52.1268 74.1575 52.0971 73.317 52.0712C74.1245 38.1217 73.8684 23.9894 72.5526 10.0343C72.9857 9.33659 73.8145 7.79187 74.3347 5.48933C74.648 4.10336 74.0581 2.74005 72.8325 2.01613C71.6254 1.30346 70.1702 1.44253 69.1254 2.37067C68.6008 2.83662 68.1052 3.12537 67.2561 3.12537C66.1409 3.12537 65.6429 2.63708 64.8892 1.89801C64.0268 1.05221 62.9537 0 60.8813 0C58.8091 0 57.7361 1.05221 56.8739 1.89769C56.1201 2.63677 55.6221 3.12506 54.5073 3.12506C53.3922 3.12506 52.8944 2.63677 52.1407 1.89769C51.2783 1.05221 50.2051 0 48.1329 0C46.0607 0 44.9877 1.05221 44.1257 1.89769C43.3719 2.63677 42.8739 3.12506 41.759 3.12506C40.6442 3.12506 40.1464 2.63677 39.3924 1.89769C38.5304 1.05221 37.4574 0 35.3852 0C33.3131 0 32.2403 1.05221 31.3782 1.89769C30.6244 2.63677 30.1266 3.12506 29.0121 3.12506C28.1633 3.12506 27.6677 2.83631 27.1433 2.37052C26.0989 1.44253 24.6442 1.30331 23.4368 2.01566C22.211 2.73927 21.6213 4.10242 21.9345 5.48839C22.4548 7.79187 23.284 9.3369 23.7172 10.0344C23.5145 12.1831 23.3326 14.3743 23.1784 16.5608C23.1328 17.2064 23.6192 17.7668 24.2648 17.8122C24.9134 17.8572 25.4708 17.3713 25.5164 16.7256C25.66 14.6903 25.8266 12.6492 26.013 10.6443C40.6967 8.87627 55.5734 8.87627 70.2579 10.6443C71.5334 24.3814 71.7715 38.2873 70.9727 52.0146C67.2683 51.9495 63.5501 51.9976 59.8674 52.1645C55.8756 52.3454 52.5446 54.895 51.2369 58.4565C48.4684 56.5563 46.204 55.7861 44.4942 56.1678C43.4269 56.4061 42.5803 57.0847 42.0458 58.1307C41.36 59.4729 41.5254 60.5563 41.7848 61.229C42.004 61.7973 42.3775 62.3181 42.8995 62.79C37.2919 62.6315 31.6242 62.2129 26.013 61.5367C24.7747 48.2017 24.5101 34.6976 25.227 21.3845C25.2619 20.7382 24.7661 20.186 24.1198 20.1513C23.4696 20.1157 22.9215 20.6123 22.8865 21.2585C22.154 34.861 22.439 48.6594 23.73 62.279C23.3003 62.9667 22.4598 64.5191 21.9349 66.8435C21.6212 68.2299 22.2109 69.5937 23.4371 70.3178C24.644 71.0306 26.0994 70.8909 27.1433 69.9632C27.6685 69.4973 28.1644 69.2085 29.0124 69.2085C30.1276 69.2085 30.6257 69.6968 31.3796 70.4361C32.242 71.2816 33.3151 72.3336 35.3874 72.3336C37.4599 72.3336 38.533 71.2814 39.3954 70.4361C40.1492 69.6968 40.6475 69.2085 41.7625 69.2085C42.1405 69.2085 42.448 69.266 42.7166 69.3684C42.2897 69.7936 41.977 70.2561 41.7844 70.7554C41.525 71.4281 41.3595 72.5116 42.0453 73.8539C42.5798 74.8997 43.4264 75.5784 44.4938 75.8166C44.7779 75.8801 45.0771 75.9116 45.3916 75.9116C46.9696 75.9116 48.9279 75.1108 51.2359 73.5269C52.5433 77.089 55.8746 79.6391 59.8669 79.8198C62.5159 79.9398 65.1831 79.9998 67.8508 79.9998C70.5179 79.9998 73.1856 79.9398 75.8341 79.8198C79.8263 79.6389 83.1575 77.0889 84.4649 73.5267C86.7729 75.1108 88.7312 75.9115 90.3092 75.9115C90.6236 75.9115 90.9231 75.8798 91.207 75.8165C92.2744 75.5782 93.121 74.8996 93.6555 73.8536C94.3413 72.5114 94.1758 71.428 93.9163 70.7553C93.6191 69.9836 93.0393 69.2984 92.185 68.7062ZM25.4523 8.35282C25.0919 7.68468 24.5759 6.54466 24.2206 4.97197C24.0917 4.40118 24.5003 4.10961 24.6284 4.03399C24.7833 3.94258 25.187 3.76773 25.5869 4.12289C26.2924 4.74947 27.3193 5.46886 29.0121 5.46886C31.0841 5.46886 32.157 4.41665 33.0192 3.57116C33.7728 2.83209 34.2708 2.3438 35.3853 2.3438C36.5 2.3438 36.9979 2.83209 37.7518 3.57116C38.6137 4.41665 39.6868 5.46886 41.759 5.46886C43.8313 5.46886 44.9044 4.41665 45.7665 3.57116C46.5202 2.83209 47.0182 2.3438 48.1329 2.3438C49.2478 2.3438 49.7458 2.83209 50.4995 3.57116C51.3619 4.41665 52.435 5.46886 54.5073 5.46886C56.5795 5.46886 57.6525 4.41665 58.5147 3.57116C59.2684 2.83209 59.7664 2.3438 60.8813 2.3438C61.9965 2.3438 62.4944 2.83209 63.2482 3.57116C64.1107 4.41665 65.1839 5.46886 67.2563 5.46886C68.9491 5.46886 69.9762 4.74962 70.6819 4.12289C71.0813 3.76789 71.4859 3.94242 71.6409 4.03414C71.7692 4.10992 72.1779 4.40149 72.0487 4.97244C71.6934 6.5456 71.1771 7.68578 70.8176 8.35266C55.7615 6.517 40.5068 6.517 25.4523 8.35282ZM74.4322 77.5298C72.8543 77.5893 71.2715 77.6292 69.6866 77.6457C70.3873 72.505 71.6876 67.3152 73.5614 62.1986C73.7839 61.5907 73.4717 60.9178 72.8639 60.6951C72.2559 60.4726 71.5832 60.7849 71.3604 61.3926C69.3896 66.7746 68.0322 72.2395 67.3199 77.6531C65.7445 77.6482 64.1703 77.622 62.5998 77.5748C64.1881 66.0239 68.4247 57.1438 69.8879 54.3403C71.3624 54.3575 72.8351 54.395 74.3034 54.4493C73.9647 55.1414 73.5656 55.9905 73.1331 56.9786C72.8736 57.5714 73.1436 58.2625 73.7365 58.5221C73.8895 58.5891 74.0489 58.6208 74.2059 58.6208C74.6573 58.6208 75.0875 58.3585 75.28 57.9186C75.8975 56.5084 76.4414 55.3962 76.8294 54.6389C78.2174 54.9114 79.4593 55.57 80.441 56.4995C78.5794 60.6673 75.6663 68.3049 74.4322 77.5298ZM37.7549 68.7621C37.001 69.5012 36.5027 69.9896 35.3877 69.9896C34.2726 69.9896 33.7745 69.5014 33.0207 68.7623C32.1582 67.9168 31.0851 66.8646 29.0127 66.8646C27.3214 66.8646 26.2942 67.5835 25.5873 68.2106C25.1876 68.5656 24.7839 68.391 24.6292 68.2995C24.5008 68.2237 24.092 67.932 24.2214 67.3602C24.6033 65.6688 25.1719 64.4767 25.5322 63.8361C31.0509 64.5072 36.6253 64.938 42.1472 65.1147C42.0573 65.3983 42.01 65.6914 42.01 65.9924C42.01 66.2964 42.0581 66.5927 42.15 66.879C42.0245 66.8705 41.8964 66.8647 41.7631 66.8647C39.6904 66.8646 38.6173 67.9168 37.7549 68.7621ZM45.0049 73.5291C44.746 73.4713 44.4127 73.3347 44.133 72.7874C43.8166 72.1678 43.8892 71.8123 43.9717 71.5989C44.2144 70.97 45.0994 70.3389 46.4638 69.8218C46.9235 69.6476 47.2257 69.2051 47.2206 68.7135C47.2154 68.222 46.904 67.7859 46.4407 67.6215C45.0068 67.1124 44.3538 66.4201 44.3538 65.9921C44.3538 65.5641 45.0069 64.8717 46.4407 64.3627C46.904 64.1983 47.2154 63.7622 47.2206 63.2706C47.2256 62.779 46.9235 62.3365 46.4638 62.1625C45.0994 61.6454 44.2144 61.0145 43.9717 60.3854C43.8894 60.172 43.8166 59.8165 44.133 59.1971C44.4127 58.6496 44.746 58.513 45.0049 58.4552C45.5569 58.3319 47.1868 58.348 50.6822 60.9396C50.6717 61.0571 50.6614 61.1746 50.6552 61.2934C50.4906 64.4111 50.4906 67.5727 50.6552 70.6904C50.6614 70.8092 50.6717 70.9267 50.6822 71.0442C47.1871 73.636 45.5577 73.6522 45.0049 73.5291ZM52.9955 61.4171C53.1943 57.6483 56.1943 54.6772 59.9735 54.5061C60.0122 54.5043 60.0513 54.5033 60.09 54.5014C58.482 57.8057 55.4795 64.7533 53.7951 73.5358C53.3341 72.641 53.0519 71.6364 52.9955 70.5675C52.8355 67.5316 52.8355 64.453 52.9955 61.4171ZM55.7537 75.911C57.4915 65.2297 61.4058 57.0166 62.7598 54.405C64.2592 54.3612 65.7622 54.3365 67.2659 54.3315C65.4162 58.0914 61.6965 66.6841 60.2464 77.4893C60.1555 77.4854 60.0644 77.4826 59.9735 77.4785C58.3766 77.4062 56.9198 76.8324 55.7537 75.911ZM82.7062 70.5673C82.5272 73.9633 80.0731 76.7107 76.8244 77.3464C77.9358 69.4814 80.2851 62.8464 82.0348 58.7118C82.4194 59.539 82.6553 60.4515 82.7062 61.417C82.8662 64.453 82.8662 67.5315 82.7062 70.5673ZM91.5689 72.7872C91.2892 73.3347 90.9559 73.4713 90.697 73.5291C90.1447 73.6521 88.515 73.6361 85.0197 71.0447C85.0302 70.9272 85.0405 70.8095 85.0468 70.6908C85.2113 67.573 85.2113 64.4114 85.0468 61.2937C85.0405 61.1749 85.0302 61.0574 85.0197 60.9399C88.5146 58.3485 90.1442 58.3321 90.697 58.4555C90.9559 58.5133 91.2892 58.6499 91.5689 59.1971C91.8853 59.8166 91.8125 60.1721 91.73 60.3856C91.4874 61.0145 90.6023 61.6456 89.2379 62.1625C88.7784 62.3367 88.4762 62.7792 88.4812 63.2708C88.4864 63.7623 88.7978 64.1984 89.2611 64.3628C90.6951 64.8719 91.3481 65.5643 91.3481 65.9922C91.3481 66.4202 90.695 67.1126 89.2611 67.6216C88.7978 67.786 88.4864 68.2221 88.4812 68.7137C88.476 69.2053 88.7782 69.6478 89.2379 69.822C90.6023 70.3389 91.4874 70.97 91.7302 71.5991C91.8124 71.8123 91.8853 72.1678 91.5689 72.7872Z" fill="#0D6EFD"/>
<path d="M40.2951 32.2212C45.4983 31.5301 50.774 31.5301 55.9769 32.2212C56.0293 32.2281 56.0813 32.2315 56.1327 32.2315C56.7113 32.2315 57.2146 31.8032 57.2929 31.214C57.3782 30.5724 56.9271 29.9832 56.2855 29.8979C50.8784 29.1798 45.3944 29.1798 39.9865 29.8979C39.3449 29.9832 38.8938 30.5724 38.9791 31.214C39.0644 31.8555 39.6535 32.3062 40.2951 32.2212Z" fill="#0D6EFD"/>
<path d="M57.2929 41.2715C57.2078 40.63 56.6181 40.1793 55.9769 40.2642C50.774 40.9553 45.4983 40.9553 40.2951 40.2642C39.6538 40.179 39.0643 40.63 38.9791 41.2715C38.8938 41.9131 39.3449 42.5023 39.9865 42.5875C42.6903 42.9466 45.413 43.1261 48.1359 43.1261C50.8589 43.1261 53.5817 42.9466 56.2854 42.5875C56.9273 42.5023 57.3782 41.9131 57.2929 41.2715Z" fill="#0D6EFD"/>
<path d="M60.4676 36.2422C60.4676 35.595 59.943 35.0703 59.2957 35.0703H36.9766C36.3293 35.0703 35.8047 35.595 35.8047 36.2422C35.8047 36.8894 36.3293 37.4141 36.9766 37.4141H59.2957C59.9429 37.4141 60.4676 36.8894 60.4676 36.2422Z" fill="#0D6EFD"/>
</g>
<defs>
<clipPath id="clip0_9_1282">
<rect x="18" width="80" height="80" rx="10" fill="white"/>
</clipPath>
</defs>
</svg>
