<svg width="101" height="81" viewBox="0 0 101 81" fill="none" xmlns="http://www.w3.org/2000/svg">
<path d="M6.3125 74.7666C6.3125 77.9396 9.1334 80.5031 12.625 80.5031H44.1875V51.8204H6.3125V74.7666ZM56.8125 80.5031H88.375C91.8666 80.5031 94.6875 77.9396 94.6875 74.7666V51.8204H56.8125V80.5031ZM94.6875 23.1376H86.3826C87.6057 20.9685 88.375 18.5663 88.375 15.9669C88.375 7.27246 80.583 0.191406 71.0156 0.191406C62.8094 0.191406 57.5029 4.0098 50.6973 12.4354C43.8916 4.0098 38.5852 0.191406 30.3789 0.191406C20.8115 0.191406 13.0195 7.27246 13.0195 15.9669C13.0195 18.5663 13.7691 20.9685 15.0119 23.1376H6.3125C2.8209 23.1376 0 25.7011 0 28.8742V43.2156C0 44.7931 1.42031 46.0838 3.15625 46.0838H97.8438C99.5797 46.0838 101 44.7931 101 43.2156V28.8742C101 25.7011 98.1791 23.1376 94.6875 23.1376ZM30.3592 23.1376C25.9996 23.1376 22.4686 19.9287 22.4686 15.9669C22.4686 12.0051 25.9996 8.79624 30.3592 8.79624C34.2848 8.79624 37.1846 9.38782 47.3438 23.1376H30.3592ZM71.0156 23.1376H54.0311C64.1705 9.42367 66.9914 8.79624 71.0156 8.79624C75.3752 8.79624 78.9062 12.0051 78.9062 15.9669C78.9062 19.9287 75.3752 23.1376 71.0156 23.1376Z" fill="#0D6EFD"/>
</svg>
