<svg width="15" height="15" viewBox="0 0 15 15" fill="none" xmlns="http://www.w3.org/2000/svg">
<g clip-path="url(#clip0_9_1609)">
<path d="M14.6875 2.69542H3.16083V2.50875C3.09861 2.07319 2.90417 1.70764 2.5775 1.41208C2.25083 1.11653 1.85417 0.96875 1.3875 0.96875H0.6875V2.13542H1.3875C1.54306 2.13542 1.67528 2.18208 1.78417 2.27542C1.89306 2.36875 1.96306 2.49319 1.99417 2.64875L2.9275 10.4887C2.95861 10.9554 3.1375 11.3287 3.46417 11.6087C3.79083 11.8888 4.1875 12.0443 4.65417 12.0754H12.3542V10.8621H4.65417C4.49861 10.8621 4.36639 10.8154 4.2575 10.7221C4.14861 10.6287 4.07861 10.5043 4.0475 10.3488L4.00083 9.69542H13.4275L14.6875 2.69542ZM12.4475 8.52875H3.86083L3.30083 3.86208H13.2875L12.4475 8.52875ZM3.6275 13.8021C3.59639 14.1132 3.6975 14.3854 3.93083 14.6188C4.16417 14.8521 4.44417 14.9688 4.77083 14.9688C5.0975 14.9688 5.36972 14.8521 5.5875 14.6188C5.80528 14.3854 5.92194 14.1132 5.9375 13.8021C5.95306 13.491 5.84417 13.2188 5.61083 12.9854C5.3775 12.7521 5.0975 12.6354 4.77083 12.6354C4.44417 12.6354 4.17194 12.7521 3.95417 12.9854C3.73639 13.2188 3.6275 13.491 3.6275 13.8021ZM9.46083 13.8021C9.42972 14.1132 9.53083 14.3854 9.76417 14.6188C9.9975 14.8521 10.2775 14.9688 10.6042 14.9688C10.9308 14.9688 11.2031 14.8521 11.4208 14.6188C11.6386 14.3854 11.7553 14.1132 11.7708 13.8021C11.7864 13.491 11.6775 13.2188 11.4442 12.9854C11.2108 12.7521 10.9308 12.6354 10.6042 12.6354C10.2775 12.6354 10.0053 12.7521 9.7875 12.9854C9.56972 13.2188 9.46083 13.491 9.46083 13.8021Z" fill="#3BB77E"/>
</g>
<defs>
<clipPath id="clip0_9_1609">
<rect width="14" height="14" fill="white" transform="matrix(1 0 0 -1 0.6875 14.9688)"/>
</clipPath>
</defs>
</svg>
