<svg width="102" height="80" viewBox="0 0 102 80" fill="none" xmlns="http://www.w3.org/2000/svg">
<path d="M49.5674 20.7354L16.9739 47.58V76.5531C16.9739 77.3032 17.2719 78.0227 17.8023 78.5531C18.3328 79.0836 19.0522 79.3816 19.8024 79.3816L39.6128 79.3303C40.3605 79.3266 41.0763 79.0269 41.6037 78.4969C42.1311 77.9668 42.4272 77.2495 42.4272 76.5018V59.5818C42.4272 58.8317 42.7252 58.1122 43.2556 57.5818C43.7861 57.0513 44.5055 56.7533 45.2557 56.7533H56.5698C57.32 56.7533 58.0395 57.0513 58.5699 57.5818C59.1004 58.1122 59.3984 58.8317 59.3984 59.5818V76.4894C59.3972 76.8616 59.4695 77.2304 59.6111 77.5746C59.7528 77.9188 59.9609 78.2316 60.2237 78.4952C60.4865 78.7588 60.7987 78.9679 61.1424 79.1106C61.4862 79.2533 61.8547 79.3268 62.2269 79.3268L82.0302 79.3816C82.7804 79.3816 83.4998 79.0836 84.0303 78.5531C84.5607 78.0227 84.8587 77.3032 84.8587 76.5531V47.5606L52.2722 20.7354C51.8891 20.4266 51.4119 20.2582 50.9198 20.2582C50.4278 20.2582 49.9505 20.4266 49.5674 20.7354ZM101.052 38.9812L86.273 26.7991V2.31281C86.273 1.75018 86.0495 1.21059 85.6517 0.812751C85.2538 0.414911 84.7142 0.191406 84.1516 0.191406H74.2517C73.6891 0.191406 73.1495 0.414911 72.7517 0.812751C72.3538 1.21059 72.1303 1.75018 72.1303 2.31281V15.1491L56.3029 2.12719C54.784 0.87729 52.8781 0.193905 50.911 0.193905C48.944 0.193905 47.038 0.87729 45.5191 2.12719L0.76989 38.9812C0.555076 39.1588 0.377351 39.3769 0.246871 39.6232C0.116391 39.8695 0.0357116 40.139 0.00944405 40.4165C-0.0168235 40.6939 0.0118351 40.9738 0.0937823 41.2402C0.17573 41.5066 0.309359 41.7542 0.487036 41.9689L4.99502 47.4492C5.17221 47.6646 5.39016 47.843 5.63638 47.9742C5.88261 48.1053 6.15228 48.1865 6.42995 48.2133C6.70763 48.2401 6.98785 48.2118 7.25459 48.1301C7.52133 48.0485 7.76934 47.915 7.98443 47.7373L49.5674 13.4873C49.9505 13.1785 50.4278 13.0101 50.9198 13.0101C51.4119 13.0101 51.8891 13.1785 52.2722 13.4873L93.857 47.7373C94.0717 47.915 94.3194 48.0486 94.5857 48.1306C94.8521 48.2125 95.132 48.2412 95.4095 48.2149C95.6869 48.1887 95.9565 48.108 96.2027 47.9775C96.449 47.847 96.6671 47.6693 96.8447 47.4545L101.353 41.9742C101.53 41.7582 101.663 41.5094 101.744 41.2418C101.825 40.9743 101.852 40.6934 101.825 40.4152C101.797 40.1371 101.714 39.8673 101.581 39.6212C101.449 39.3751 101.269 39.1576 101.052 38.9812Z" fill="#0D6EFD"/>
</svg>
