<svg width="103" height="103" viewBox="0 0 103 103" fill="none" xmlns="http://www.w3.org/2000/svg">
<path d="M51.0833 0.191406C22.8701 0.191406 0 23.0615 0 51.2747C0 79.4879 22.8701 102.358 51.0833 102.358C79.2965 102.358 102.167 79.4879 102.167 51.2747C102.167 23.0615 79.2965 0.191406 51.0833 0.191406ZM68.0335 73.8502C67.2302 74.6494 66.3877 75.4878 65.7038 76.1737C65.088 76.7916 64.6533 77.5538 64.4329 78.3798C64.1219 79.5456 63.8706 80.7238 63.4504 81.8547L59.8684 91.5049C57.0341 92.1228 54.1009 92.4709 51.0833 92.4709V86.8312C51.4314 84.2317 49.5096 79.3623 46.422 76.2746C45.1861 75.0387 44.4919 73.3621 44.4919 71.6133V65.0198C44.4919 62.6222 43.2004 60.4182 41.1015 59.2585C38.1415 57.621 33.9313 55.3325 31.0475 53.8804C28.6829 52.6898 26.4953 51.1738 24.5282 49.4003L24.3634 49.252C22.9567 47.9822 21.7078 46.5479 20.6434 44.9799C18.7113 42.1436 15.5639 37.4781 13.5185 34.4461C17.735 25.0739 25.3336 17.5474 34.7758 13.4586L39.7214 15.9325C41.913 17.0283 44.4919 15.4361 44.4919 12.9849V10.6573C46.1377 10.3916 47.8123 10.2227 49.5158 10.1588L55.3451 15.9881C56.6324 17.2755 56.6324 19.3621 55.3451 20.6494L54.379 21.6134L52.2492 23.7433C51.6065 24.3859 51.6065 25.4303 52.2492 26.0729L53.2152 27.039C53.8579 27.6816 53.8579 28.726 53.2152 29.3686L51.5674 31.0165C51.258 31.3253 50.8386 31.4986 50.4015 31.4985H48.5497C48.1213 31.4985 47.7093 31.6653 47.4004 31.966L45.357 33.9538C45.1066 34.1977 44.9401 34.5148 44.8816 34.8595C44.8231 35.2042 44.8756 35.5586 45.0316 35.8714L48.2428 42.296C48.7907 43.3918 47.9936 44.6813 46.7701 44.6813H45.6083C45.2108 44.6813 44.8277 44.5371 44.529 44.2775L42.6175 42.6173C42.1849 42.2421 41.6621 41.9859 41.1005 41.8739C40.5389 41.7619 39.9579 41.7981 39.4145 41.9788L32.994 44.1189C32.5039 44.2824 32.0776 44.5959 31.7755 45.0152C31.4735 45.4344 31.311 45.938 31.3112 46.4548C31.3112 47.3878 31.8385 48.2385 32.6727 48.6567L34.955 49.7978C36.8933 50.768 39.0313 51.2727 41.1983 51.2727C43.3652 51.2727 45.8514 56.8939 47.7897 57.864H61.5389C63.2877 57.864 64.9623 58.5582 66.2003 59.7941L69.0201 62.614C70.1982 63.7925 70.8598 65.3907 70.8596 67.057C70.8591 68.3196 70.6092 69.5698 70.1243 70.7356C69.6393 71.9014 68.9287 72.9598 68.0335 73.8502ZM85.8941 55.0339C84.7015 54.7352 83.6613 54.004 82.9795 52.9802L79.2759 47.4249C78.734 46.6133 78.4448 45.6592 78.4448 44.6833C78.4448 43.7074 78.734 42.7534 79.2759 41.9417L83.3111 35.89C83.789 35.1752 84.444 34.5944 85.2144 34.2112L87.888 32.8744C90.6729 38.4194 92.2795 44.6565 92.2795 51.2747C92.2795 53.0606 92.1271 54.8093 91.9046 56.5355L85.8941 55.0339Z" fill="#0D6EFD"/>
</svg>
